<mxfile host="app.diagrams.net" modified="2024-06-26T22:17:50.232Z" agent="Mozilla/5.0 (Windows NT 10.0; Win64; x64) AppleWebKit/537.36 (KHTML, like Gecko) Chrome/126.0.0.0 Safari/537.36" version="24.6.3" etag="vuBmA2IRM2-BoRbz9XgD" type="github">
  <diagram name="Page-1" id="gjRwD3uV-hm7EF7mS_0D">
    <mxGraphModel>
      <root>
        <mxCell id="0" />
        <mxCell id="1" parent="0" />
      </root>
    </mxGraphModel>
  </diagram>
</mxfile>
